<?xml version="1.0" encoding="UTF-8" standalone="no"?>
<svg width="570px" height="360px" viewBox="0 0 570 360" version="1.1" xmlns="http://www.w3.org/2000/svg" xmlns:xlink="http://www.w3.org/1999/xlink">
    <!-- Generator: Sketch 48.2 (47327) - http://www.bohemiancoding.com/sketch -->
    <title>campaign type icons copy</title>
    <desc>Created with Sketch.</desc>
    <defs>
        <path d="M32.0722777,72.8505378 L32.0722777,78.0002742 C32.0722777,78.552559 31.6245624,79.0002742 31.0722777,79.0002742 L30.8444807,79.0002742 C30.2921959,79.0002742 29.8444807,78.552559 29.8444807,78.0002742 L29.8444807,73.0204604 L26.5638738,73.2706847 L31.3879635,65.181476 L35.0273014,72.6251469 L32.0722777,72.8505378 Z" id="path-1"></path>
    </defs>
    <g id="v1" stroke="none" stroke-width="1" fill="none" fill-rule="evenodd">
        <g id="campaign-type-icons-copy">
            <g id="adaptive" transform="translate(223.000000, 215.000000)">
                <g id="Group-21-Copy">
                    <g id="Group-6" transform="translate(0.589474, 0.571429)">
                        <g id="Group-8" transform="translate(15.536842, 0.000000)">
                            <path d="M70.1766359,21.8035714 C72.2082156,20.5452678 74.5885011,19.8214286 77.1332587,19.8214286 C84.5881751,19.8214286 90.6315789,26.0334777 90.6315789,33.6964286 C90.6315789,40.6863997 85.6030577,46.4691222 79.0615901,47.4309167 L79.0615901,47.5714286 L14.462486,47.5714286 C6.47507554,47.5714286 0,40.9156617 0,32.7053571 C0,24.4950526 6.47507554,17.8392857 14.462486,17.8392857 C14.4662449,17.8392857 14.4700035,17.8392872 14.4737618,17.8392901 C14.7253842,12.322175 19.1566441,7.92857143 24.5862262,7.92857143 C26.0672169,7.92857143 27.4739327,8.25545473 28.7418133,8.8428596 C32.7982504,3.46298351 39.1456703,0 46.2799552,0 C58.2042694,0 67.9303886,9.67422854 68.4351837,21.8035714 L70.1766359,21.8035714 Z" id="Combined-Shape" fill="#F8F8FF"></path>
                            <g id="Group-5" transform="translate(47.089474, 23.785714) rotate(-360.000000) translate(-47.089474, -23.785714) translate(2.589474, 1.285714)" stroke="#6E66CB" stroke-linecap="round">
                                <path d="M35.8761503,2.12424294 C36.5114637,1.81777338 37.1643052,1.54161326 37.8327747,1.29765234 M41.3276982,0.3492271 C42.5870203,0.119841461 43.8848426,7.10542736e-15 45.2108108,7.10542736e-15 C57.0383462,7.10542736e-15 66.626458,9.53519111 66.626458,21.2974454 C66.626458,21.5033948 66.6235185,21.7086614 66.617679,21.913206 C68.8817292,20.0504545 71.7867977,18.9310626 74.9547653,18.9310626 C82.1827036,18.9310626 88.0421053,24.7581238 88.0421053,31.9461681 C88.0421053,39.1342124 82.1827036,44.9612737 74.9547653,44.9612737 C74.725138,44.9612737 67.648705,44.9612737 65.9011901,44.9612737 M14.2770982,44.9612737 C6.39207457,44.9612737 -7.10542736e-15,38.6044796 -7.10542736e-15,30.7629767 C-7.10542736e-15,22.9214738 6.39207457,16.5646798 14.2770982,16.5646798 C14.2770982,11.3370112 18.5384812,7.09914847 23.7951636,7.09914847 C25.4258246,7.09914847 26.9607093,7.5069518 28.3023227,8.22560139 C29.5966486,6.57219231 31.130808,5.11361754 32.8528344,3.90155672 M66.0315789,45 L14.2421053,45 L66.0315789,45 Z" id="Combined-Shape"></path>
                                <path d="M45.3157895,3.85714286 C54.8208079,3.85714286 62.5261478,11.0046975 62.5261478,19.8216531 M76.0485722,22.1022974 C80.8010815,22.1022974 84.6537514,25.6760747 84.6537514,30.0845525" id="Combined-Shape" stroke-width="0.8" stroke-linejoin="round"></path>
                            </g>
                        </g>
                        <g id="Group" transform="translate(81.568421, 36.000000)">
                            <path d="M34.9578947,34.7142857 C34.9578947,37.5546073 27.1323034,39.8571429 17.4789474,39.8571429 C7.82559129,39.8571429 0,37.5546073 0,34.7142857 L0,5.78571429 L34.9578947,5.78571429 L34.9578947,34.7142857 Z" id="Combined-Shape" stroke="#8A96A8" fill="#FFFFFF"></path>
                            <ellipse id="Oval-2" fill="#6E66CB" cx="3.88421053" cy="14.1428571" rx="1.29473684" ry="1.28571429"></ellipse>
                            <ellipse id="Oval-2-Copy" fill="#6E66CB" cx="3.88421053" cy="24.4285714" rx="1.29473684" ry="1.28571429"></ellipse>
                            <ellipse id="Oval-2-Copy-2" fill="#6E66CB" cx="3.88421053" cy="33.4285714" rx="1.29473684" ry="1.28571429"></ellipse>
                            <ellipse id="Oval-Copy-5" fill="#FFFFFF" cx="17.4789474" cy="5.14285714" rx="17.4789474" ry="5.14285714"></ellipse>
                            <path d="M8.75928989,0.995557325 C6.42732891,1.84472842 5.03084033,2.92551372 5.03084033,4.10226775 C5.03084033,6.83428633 12.5580376,9.04902498 21.843306,9.04902498 C24.7609446,9.04902498 27.5049988,8.83035129 29.8964818,8.44566748 C26.8144306,9.56797993 22.0983188,10.2857143 16.8124657,10.2857143 C7.52719728,10.2857143 0,8.07097563 0,5.33895706 C0,3.46539968 3.53997339,1.83511441 8.75928989,0.995557325 Z" id="Combined-Shape" fill="#F8F8FF"></path>
                            <ellipse id="Oval-Copy-5" stroke="#8A96A8" cx="17.4789474" cy="5.14285714" rx="17.4789474" ry="5.14285714"></ellipse>
                            <path d="M0,15.4285714 C0,18.268893 7.82559129,20.5714286 17.4789474,20.5714286 C19.2565369,20.5714286 20.97215,20.4933535 22.5883365,20.3482222 M25.2869633,20.0310379 C25.7978901,19.9558529 26.2945505,19.8735194 26.7754301,19.7844829 M29.0454557,19.2844278 C32.6713058,18.3421025 34.9578947,16.9639058 34.9578947,15.4285714" id="Oval-Copy-6" stroke="#8A96A8" stroke-linecap="round"></path>
                            <path d="M0,25.7142857 C0,28.5546073 7.82559129,30.8571429 17.4789474,30.8571429 C27.1323034,30.8571429 34.9578947,28.5546073 34.9578947,25.7142857" id="Oval-Copy-8" stroke="#8A96A8"></path>
                        </g>
                        <g id="Group-2" transform="translate(0.000000, 30.857143)">
                            <path d="M11.4736842,0 L46.6105263,0 L49.2,0 L46.6105263,3.21428571 L46.6105263,43.7142857 L6.47368421,43.7142857 L6.47368421,5 C6.47368421,2.23857625 8.71226046,-3.80913106e-16 11.4736842,-8.8817842e-16 Z" id="Rectangle" fill="#FFFFFF"></path>
                            <path d="M15.3578947,-8.8817842e-16 C12.596471,-3.80913106e-16 10.3578947,2.23857625 10.3578947,5 L10.3578947,43.7142857 L6.47368421,43.7142857 L6.47368421,5 C6.47368421,2.23857625 8.71226046,5.07265313e-16 11.4736842,0 L15.3578947,0 Z" id="Combined-Shape" fill="#F8F8FF"></path>
                            <path d="M6.47368421,43.7142857 C6.47368421,43.7142857 6.47368421,40.5114093 6.47368421,39.4175279 C6.47368421,26.3841975 6.47368421,16.416243 6.47368421,9.51366449 C6.47368421,8.81385289 6.47368421,7.76413549 6.47368421,6.36451228 C6.47368421,2.84948921 9.35098983,0 12.9003262,0 C15.735625,0 17.8620992,0 19.2797486,0 C19.9518914,0 20.6565985,0 21.3938699,0 M23.706433,0 C24.1732763,0 24.7399111,0 25.4063372,0 M27.6053342,0 C32.2778385,0 39.9076394,0 50.4947368,0" id="Rectangle-4-Copy" stroke="#8A96A8" stroke-linecap="round" stroke-linejoin="round"></path>
                            <path d="M8.42152388,43.7616737 L1.53875107e-14,43.7616737 L-2.66453526e-15,48.1649803 C-2.35684128e-15,50.6774923 2.0367934,52.7142857 4.54930538,52.7142857 L4.54930538,52.7142857 C7.06181736,52.7142857 9.09861076,50.6774923 9.09861076,48.1649803 L9.09861076,43.781655 L9.09861076,8.93096312 L9.09861076,4.47055793 C9.09861076,2.00153696 11.1398149,0 13.6577678,0 C16.1757207,0 18.2169249,2.00153696 18.2169249,4.47055793 L18.2169249,8.93096312 L55.6736842,8.93096312 L55.6736842,7 C55.6736842,3.13400675 52.5396775,-3.61275051e-15 48.6736842,-9.76996262e-15 L13.6908866,0" id="Rectangle-6-Copy" stroke="#8A96A8" stroke-linecap="round" stroke-linejoin="round" transform="translate(27.836842, 26.357143) rotate(-180.000000) translate(-27.836842, -26.357143) "></path>
                            <path d="M14.2421053,16.7142857 L31.0736842,16.7142857" id="Path-2" stroke="#8A96A8" stroke-width="0.8" stroke-linecap="round" stroke-linejoin="round"></path>
                            <path d="M22.0105263,28.2857143 L38.8421053,28.2857143" id="Path-2-Copy-3" stroke="#8A96A8" stroke-width="0.8" stroke-linecap="round" stroke-linejoin="round"></path>
                            <path d="M34.2538435,16.7142857 L37.9789474,16.7142857" id="Path-2-Copy-2" stroke="#8A96A8" stroke-width="0.8" stroke-linecap="round" stroke-linejoin="round"></path>
                            <path d="M14.2421053,28.2857143 L18.5578947,28.2857143" id="Path-2-Copy-5" stroke="#8A96A8" stroke-width="0.8" stroke-linecap="round" stroke-linejoin="round"></path>
                            <path d="M14.2421053,22.5 L43.2861219,22.5" id="Path-2-Copy" stroke="#8A96A8" stroke-width="0.8" stroke-linecap="round" stroke-linejoin="round"></path>
                        </g>
                        <g id="Group-3" transform="translate(55.673684, 51.714286)" stroke="#8A96A8" stroke-linecap="round">
                            <polyline id="Rectangle-12" stroke-linejoin="round" transform="translate(12.725227, 4.636549) rotate(-45.000000) translate(-12.725227, -4.636549) " points="15.3147004 2.06512059 15.3147004 7.20797773 10.135753 7.20797773"></polyline>
                            <path d="M0.647368421,4.85714286 L15.5476286,4.85714286" id="Path-9"></path>
                        </g>
                        <g id="Group-3" transform="translate(64.005263, 66.500000) scale(-1, 1) translate(-64.005263, -66.500000) translate(55.505263, 62.000000)" stroke="#8A96A8" stroke-linecap="round">
                            <polyline id="Rectangle-12" stroke-linejoin="round" transform="translate(12.725227, 4.636549) rotate(-45.000000) translate(-12.725227, -4.636549) " points="15.3147004 2.06512059 15.3147004 7.20797773 10.135753 7.20797773"></polyline>
                            <path d="M0.647368421,4.85714286 L15.5476286,4.85714286" id="Path-9"></path>
                        </g>
                    </g>
                </g>
            </g>
            <g id="lifecycle" transform="translate(402.000000, 57.000000)">
                <g id="Group-26-Copy">
                    <g id="Group-15">
                        <g id="Group-10">
                            <g id="Group-6" transform="translate(46.728121, 51.278018) rotate(179.000000) translate(-46.728121, -51.278018) translate(12.228121, 24.778018)" fill="#E7E8FF">
                                <ellipse id="Oval-16" cx="3.48148715" cy="23.2098765" rx="3.48148715" ry="3.48148148"></ellipse>
                                <ellipse id="Oval-16-Copy-7" cx="16.2472935" cy="35.9348018" rx="2.32099143" ry="2.32098765"></ellipse>
                                <ellipse id="Oval-16-Copy" cx="44.0988372" cy="41.7777778" rx="3.48148715" ry="3.48148148"></ellipse>
                                <ellipse id="Oval-16-Copy-2" cx="6.9629743" cy="48.7407407" rx="3.48148715" ry="3.48148148"></ellipse>
                                <ellipse id="Oval-16-Copy-3" cx="64.9874066" cy="19.7689019" rx="3.48148715" ry="3.48148148"></ellipse>
                                <ellipse id="Oval-16-Copy-4" cx="49.9013158" cy="31.3333333" rx="2.32099143" ry="2.32098765"></ellipse>
                                <ellipse id="Oval-16-Copy-6" cx="30.1728886" cy="2.32098765" rx="2.32099143" ry="2.32098765"></ellipse>
                            </g>
                            <ellipse id="Combined-Shape" stroke="#8A96A8" stroke-width="2" opacity="0.05" cx="51.0618115" cy="46.4197531" rx="37.1358629" ry="37.1358025"></ellipse>
                            <g id="Group-2" transform="translate(34.814871, 25.530864)">
                                <path d="M5.95720703,19.7283951 C6.26820534,20.1403148 6.60421901,20.5321168 6.9629743,20.9015161 C4.17958164,24.0077893 2.4642765,28.2563107 2.4642765,32.9415554 C2.4642765,34.8109308 2.7373439,36.6107821 3.24236911,38.2962963 C2.18712116,37.6134738 1.18937038,36.8480371 0.258076449,36.0090295 C0.0885990516,35.0147066 -4.26325641e-14,33.9894099 -4.26325641e-14,32.9415554 C-4.26325641e-14,27.5637915 2.33362258,22.7801771 5.95720703,19.7283951 Z" id="Combined-Shape" fill="#F8F8FF"></path>
                                <path d="M25.8350806,19.0992781 C29.2000379,22.2592679 31.3333843,26.9588358 31.3333843,32.2063481 C31.3333843,33.7899243 31.1391024,35.3235997 30.7753205,36.7801218 C26.7626461,39.9147129 21.7416776,41.7777778 16.2933599,41.7777778 C10.1287288,41.7777778 4.51120465,39.3926189 0.282316155,35.4791755 C0.0970215265,34.4195661 0,33.325417 0,32.2063481 C0,26.6560835 2.38661202,21.718814 6.09284723,18.5679012" id="Combined-Shape" stroke="#8A96A8"></path>
                                <path d="M13.9259486,23.2098765 C8.08245113,22.7458161 3.48148715,17.7273886 3.48148715,11.6049383 C3.48148715,5.48248795 8.08245113,0.464060434 13.9259486,1.32567568e-13 C9.15944026,1.58363696 5.71218721,6.18069538 5.71218721,11.6049383 C5.71218721,17.0291812 9.15944026,21.6262396 13.9259486,23.2098765 Z" id="Combined-Shape" fill="#F8F8FF"></path>
                                <path d="M7.1746672,3.44649681 C4.89669597,5.66055673 3.48148715,8.75760136 3.48148715,12.1851852 C3.48148715,18.9148771 8.93698926,24.3703704 15.6666922,24.3703704 C22.3963951,24.3703704 27.8518972,18.9148771 27.8518972,12.1851852 C27.8518972,5.45549323 22.3963951,0 15.6666922,0 C12.9517425,0 10.4441741,0.887903585 8.41852932,2.38916898" id="Oval-8" stroke="#8A96A8" stroke-linecap="round"></path>
                                <path d="M13.9259486,19.7283951 C15.8487209,19.7283951 17.4074357,18.1696827 17.4074357,16.2469136 C17.4074357,14.3241445 15.8487209,12.7654321 13.9259486,12.7654321" id="Oval-11" stroke="#8A96A8" stroke-linecap="round" transform="translate(15.666692, 16.246914) rotate(-270.000000) translate(-15.666692, -16.246914) "></path>
                                <ellipse id="Oval-12" fill="#8A96A8" cx="11.6049572" cy="9.86419753" rx="1.16049572" ry="1.74074074"></ellipse>
                                <ellipse id="Oval-12-Copy" fill="#8A96A8" cx="20.8889229" cy="9.86419753" rx="1.16049572" ry="1.74074074"></ellipse>
                            </g>
                            <g id="Group-5" stroke="#8A96A8" stroke-linecap="round">
                                <g id="Group-3">
                                    <path d="M83.634935,13.9560432 C75.071017,5.34093416 63.1630634,0 49.9964384,0 C23.9181829,0 2.77757991,20.9519939 2.77757991,46.7975883 C2.77757991,50.5520124 3.22367864,54.2031741 4.06620947,57.7018499" id="Oval-10"></path>
                                    <polyline id="Rectangle-12" stroke-linejoin="round" transform="translate(3.913144, 54.805019) rotate(-321.000000) translate(-3.913144, -54.805019) " points="6.69072352 52.0522198 6.69072352 57.5578185 1.1355637 57.5578185"></polyline>
                                </g>
                                <g id="Group-3" transform="translate(57.802632, 64.500000) scale(-1, -1) translate(-57.802632, -64.500000) translate(15.802632, 35.000000)">
                                    <path d="M83.634935,13.9560432 C75.071017,5.34093416 63.1630634,0 49.9964384,0 C23.9181829,0 2.77757991,20.9519939 2.77757991,46.7975883 C2.77757991,50.5520124 3.22367864,54.2031741 4.06620947,57.7018499" id="Oval-10"></path>
                                    <polyline id="Rectangle-12" stroke-linejoin="round" transform="translate(3.913144, 54.805019) rotate(-321.000000) translate(-3.913144, -54.805019) " points="6.69072352 52.0522198 6.69072352 57.5578185 1.1355637 57.5578185"></polyline>
                                </g>
                            </g>
                            <path d="M30.4739801,52.330901 L33.3022591,58.3976448 L27.5504782,52.9655546 C27.2669857,52.9874568 26.980481,52.9986114 26.691371,52.9986114 C20.6168583,52.9986114 15.6924929,48.074254 15.6924929,41.9997512 C15.6924929,35.9252484 20.6168583,31.000891 26.691371,31.000891 C32.7658837,31.000891 37.6902491,35.9252484 37.6902491,41.9997512 C37.6902491,46.7451462 34.6850479,50.7886401 30.4739801,52.330901 Z" id="Combined-Shape" fill="#6E66CB" transform="translate(26.691371, 44.699268) rotate(-33.000000) translate(-26.691371, -44.699268) "></path>
                            <g id="Group" transform="translate(20.684886, 39.456790)" fill="#F8F8FF">
                                <path d="M4.71936947,0.958626691 C5.21351743,0.37076832 5.9364999,0 6.74195639,0 C8.23134827,0 9.43873895,1.26775815 9.43873895,2.83161708 C9.43873895,4.395476 8.23134827,5.66323415 6.74195639,5.66323415 C5.9364999,5.66323415 5.21351743,5.29246583 4.71936947,4.70460746 C4.22522152,5.29246583 3.50223905,5.66323415 2.69678256,5.66323415 C1.20739068,5.66323415 0,4.395476 0,2.83161708 C0,1.26775815 1.20739068,0 2.69678256,0 C3.50223905,0 4.22522152,0.37076832 4.71936947,0.958626691 Z" id="Combined-Shape"></path>
                                <path d="M4.71936947,7.55097887 C7.86561579,6.21521631 9.43873895,4.72346171 9.43873895,3.07571509 C9.43873895,0.604095157 7.32580526,2.75605339 4.71936947,2.75605339 C2.11293368,2.75605339 0,0.604095157 0,3.07571509 C0,4.72346171 1.57312316,6.21521631 4.71936947,7.55097887 Z" id="Oval-9"></path>
                            </g>
                        </g>
                    </g>
                </g>
            </g>
            <g id="conversion" transform="translate(61.000000, 59.000000)">
                <g id="Group-25-Copy">
                    <g id="Group-12">
                        <ellipse id="Oval-16" fill="#E7E8FF" cx="31.509667" cy="25.7678571" rx="2.10064447" ry="2.08928571"></ellipse>
                        <ellipse id="Oval-16-Copy-7" fill="#E7E8FF" cx="40.6124597" cy="33.4285714" rx="1.40042965" ry="1.39285714"></ellipse>
                        <ellipse id="Oval-16-Copy" fill="#E7E8FF" cx="52.5161117" cy="20.1964286" rx="2.10064447" ry="2.08928571"></ellipse>
                        <ellipse id="Oval-16-Copy-2" fill="#E7E8FF" cx="49.7152524" cy="31.3392857" rx="2.10064447" ry="2.08928571"></ellipse>
                        <ellipse id="Oval-16-Copy-3" fill="#E7E8FF" cx="66.5204082" cy="24.375" rx="2.10064447" ry="2.08928571"></ellipse>
                        <ellipse id="Oval-16-Copy-4" fill="#E7E8FF" cx="58.8180451" cy="30.6428571" rx="1.40042965" ry="1.39285714"></ellipse>
                        <ellipse id="Oval-16-Copy-5" fill="#E7E8FF" cx="44.8137487" cy="25.0714286" rx="1.40042965" ry="1.39285714"></ellipse>
                        <ellipse id="Oval-16-Copy-6" fill="#E7E8FF" cx="47.6146079" cy="13.9285714" rx="1.40042965" ry="1.39285714"></ellipse>
                        <g id="trophy" transform="translate(20.687648, 32.035714)">
                            <g id="highlights" transform="translate(1.719227, 0.000000)">
                                <path d="M8.18324842,0 L47.3952785,0 L47.3952785,13.8225564 C47.3952785,24.6506595 38.6173666,33.4285714 27.7892635,33.4285714 L27.7892635,33.4285714 C16.9611604,33.4285714 8.18324842,24.6506595 8.18324842,13.8225564 L8.18324842,0 Z" id="Rectangle-10" fill="#FFFFFF"></path>
                                <path d="M3.17207994,2.99128918 L3.17207994,14.0801394 C3.17207994,18.4984174 6.75380194,22.0801394 11.1720799,22.0801394 L8.37122065,22.0801394 C3.95294265,22.0801394 0.371220648,18.4984174 0.371220648,14.0801394 L0.371220648,2.99128918 L3.17207994,2.99128918 Z" id="Combined-Shape" fill="#F8F8FF"></path>
                                <path d="M12.7343433,0 L12.7343433,12.5460105 C12.7343433,23.3741136 21.5122553,32.1520255 32.3403584,32.1520255 C33.4818573,32.1520255 34.6005717,32.0544732 35.6886195,31.8672507 C33.3300604,32.8723612 30.7342816,33.4285714 28.0085929,33.4285714 C17.1804898,33.4285714 8.40257787,24.6506595 8.40257787,13.8225564 L8.40257787,0 L12.7343433,0 Z" id="Combined-Shape" fill="#F8F8FF"></path>
                            </g>
                            <path d="M31.1282492,33.3626198 L31.1282492,48.75 L28.3273899,48.75 L28.3273899,33.3935815 C28.7181198,33.416798 29.11193,33.4285714 29.5084901,33.4285714 C30.0538979,33.4285714 30.5941042,33.406301 31.1282492,33.3626198 Z" id="Combined-Shape" stroke="#8A96A8" fill="#FFFFFF"></path>
                            <ellipse id="Oval-15" stroke="#8A96A8" fill="#FFFFFF" cx="29.5084901" cy="43.875" rx="5.60171858" ry="3.48214286"></ellipse>
                            <rect id="Rectangle-21" stroke="#8A96A8" fill="#FFFFFF" x="16.9046233" y="44.5714286" width="25.2077336" height="11.1428571"></rect>
                            <rect id="Rectangle-21" stroke="#8A96A8" fill="#FFFFFF" x="19.7054826" y="47.3571429" width="19.606015" height="5.57142857"></rect>
                            <rect id="Rectangle-21-Copy" stroke="#8A96A8" fill="#FFFFFF" x="8.50204542" y="55.7142857" width="42.0128894" height="2.78571429"></rect>
                            <path d="M9.90247506,2.78571429 L9.90247506,13.8225564 C9.90247506,16.853417 10.5902057,19.7236495 11.8181274,22.2857143 L9.49989719,22.2857143 C5.08161919,22.2857143 1.49989719,18.7039923 1.49989719,14.2857143 L1.49989719,2.78571429 L9.90247506,2.78571429 Z M49.1145051,2.78571429 L57.517083,2.78571429 L57.517083,14.2857143 C57.517083,18.7039923 53.935361,22.2857143 49.517083,22.2857143 L47.1988528,22.2857143 C48.4267745,19.7236495 49.1145051,16.853417 49.1145051,13.8225564 L49.1145051,2.78571429 Z" id="Combined-Shape" stroke="#8A96A8"></path>
                            <path d="M9.90247506,0 L49.1145051,0 L49.1145051,13.8225564 C49.1145051,24.6506595 40.3365932,33.4285714 29.5084901,33.4285714 L29.5084901,33.4285714 C18.680387,33.4285714 9.90247506,24.6506595 9.90247506,13.8225564 L9.90247506,0 Z" id="Rectangle-10" stroke="#8A96A8"></path>
                            <polygon id="Star" fill="#6E66CB" transform="translate(3.537592, 36.869235) rotate(-52.000000) translate(-3.537592, -36.869235) " points="3.53759193 38.5484945 1.98102382 39.2515952 2.17234176 37.5619457 1.01901182 36.3068363 2.69382092 35.9656762 3.53759193 34.4868753 4.38136294 35.9656762 6.05617205 36.3068363 4.9028421 37.5619457 5.09416005 39.2515952"></polygon>
                            <polygon id="Star-Copy" fill="#6E66CB" transform="translate(58.834845, 34.621336) rotate(-26.000000) translate(-58.834845, -34.621336) " points="58.8348452 38.1278485 55.5845279 39.5960145 55.9840247 36.0678059 53.5757213 33.4469739 57.0729412 32.7345871 58.8348452 29.6466578 60.5967491 32.7345871 64.0939691 33.4469739 61.6856656 36.0678059 62.0851625 39.5960145"></polygon>
                            <path d="M46.3136458,46.6607143 C49.581315,42.4821429 52.3821743,39.9285714 54.7162237,39" id="Path-11" stroke="#8A96A8" stroke-width="0.5" stroke-linecap="round"></path>
                            <path d="M46.3136458,43.1785714 C48.4142903,40.3928571 50.5149348,38.5357143 52.6155793,37.6071429" id="Path-11-Copy" stroke="#8A96A8" stroke-width="0.5" stroke-linecap="round"></path>
                            <path d="M7.10161577,45.9642857 C9.20226024,43.1785714 11.3029047,41.3214286 13.4035492,40.3928571" id="Path-11-Copy" stroke="#8A96A8" stroke-width="0.5" stroke-linecap="round" transform="translate(10.252582, 43.178571) scale(-1, 1) translate(-10.252582, -43.178571) "></path>
                        </g>
                        <g id="Group-3-Copy-3" transform="translate(0.000000, 5.571429)">
                            <rect id="Rectangle-16" stroke="#8A96A8" stroke-width="0.8" fill="#FFFFFF" x="0" y="0" width="40.6124597" height="16.7142857" rx="1"></rect>
                            <rect id="Rectangle-17" fill="#E6E9ED" x="3.53151824" y="3.71428571" width="8.82879559" height="9.28571429" rx="1"></rect>
                            <path d="M15.8918321,7.42857143 L31.7836641,7.42857143" id="Path-16-Copy-3" stroke="#8A96A8" stroke-width="0.5" opacity="0.212021922" stroke-linecap="round" stroke-linejoin="round"></path>
                            <path d="M15.8918321,11.1428571 L23.8866465,11.1428571" id="Path-16-Copy-5" stroke="#8A96A8" stroke-width="0.5" opacity="0.212021922" stroke-linecap="round" stroke-linejoin="round"></path>
                        </g>
                        <g id="Group-3-Copy-4" transform="translate(64.419764, 5.571429)">
                            <rect id="Rectangle-16" stroke="#8A96A8" stroke-width="0.8" fill="#FFFFFF" x="0" y="0" width="40.6124597" height="16.7142857" rx="1"></rect>
                            <rect id="Rectangle-17" fill="#E6E9ED" x="3.53151824" y="3.71428571" width="8.82879559" height="9.28571429" rx="1"></rect>
                            <path d="M15.8918321,7.42857143 L31.7836641,7.42857143" id="Path-16-Copy-3" stroke="#8A96A8" stroke-width="0.5" opacity="0.212021922" stroke-linecap="round" stroke-linejoin="round"></path>
                            <path d="M15.8918321,11.1428571 L23.8866465,11.1428571" id="Path-16-Copy-5" stroke="#8A96A8" stroke-width="0.5" opacity="0.212021922" stroke-linecap="round" stroke-linejoin="round"></path>
                        </g>
                        <g id="Group-3-Copy-2" transform="translate(30.809452, 0.000000)">
                            <rect id="Rectangle-16" stroke="#6E66CB" stroke-width="0.8" fill="#FFFFFF" x="0" y="0" width="40.6124597" height="16.7142857" rx="1"></rect>
                            <rect id="Rectangle-17" fill="#E7E8FF" x="3.53151824" y="3.71428571" width="8.82879559" height="9.28571429" rx="1"></rect>
                            <path d="M15.8918321,7.42857143 L31.7836641,7.42857143" id="Path-16-Copy-3" stroke="#E7E8FF" stroke-width="0.5" stroke-linecap="round" stroke-linejoin="round"></path>
                            <path d="M15.8918321,11.1428571 L23.8866465,11.1428571" id="Path-16-Copy-5" stroke="#E7E8FF" stroke-width="0.5" stroke-linecap="round" stroke-linejoin="round"></path>
                        </g>
                    </g>
                </g>
            </g>
            <g id="trigger" transform="translate(222.000000, 65.000000)">
                <g id="Group-24-Copy">
                    <g id="Group-11">
                        <g id="Group-3" transform="translate(72.785206, 37.419295) rotate(-8.000000) translate(-72.785206, -37.419295) translate(67.186344, 33.261596)"></g>
                        <g id="phone" transform="translate(0.000000, 8.315399)">
                            <polygon id="Rectangle-20" fill="#F8F8FF" points="2.18530741e-16 0 13.997155 0 1.16642959 51.2782931 0 51.2782931"></polygon>
                            <rect id="Rectangle-8" stroke="#6E66CB" stroke-linecap="round" stroke-linejoin="round" x="0" y="0" width="46.1906117" height="73.4526902" rx="2"></rect>
                            <path d="M32.2175896,6.92949907 L33.520773,6.92949907 M36.1271398,6.92949907 L41.9914651,6.92949907 L41.9914651,63.7513915 L4.19914651,63.7513915 L4.19914651,6.92949907 L30.2628145,6.92949907" id="Rectangle-13" stroke="#8A96A8" stroke-width="0.8" fill="#FFFFFF" stroke-linecap="round" stroke-linejoin="round"></path>
                            <path d="M8.39829303,20.7884972 L25.1948791,20.7884972" id="Path-2" stroke="#8A96A8" stroke-width="0.8" stroke-linecap="round" stroke-linejoin="round"></path>
                            <path d="M15.3968706,31.8756957 L32.1934566,31.8756957" id="Path-2-Copy-3" stroke="#8A96A8" stroke-width="0.8" stroke-linecap="round" stroke-linejoin="round"></path>
                            <path d="M8.39829303,26.3320965 L38.4320588,26.3320965" id="Path-2-Copy" stroke="#8A96A8" stroke-width="0.8" stroke-linecap="round" stroke-linejoin="round"></path>
                            <path d="M16.7965861,4.15769944 L27.9943101,4.15769944" id="Path-15" stroke="#8A96A8" stroke-linecap="round"></path>
                            <path d="M16.7965861,67.9090909 L27.9943101,67.9090909" id="Path-15-Copy" stroke="#8A96A8" stroke-linecap="round"></path>
                            <rect id="Rectangle-14" fill="#E7E8FF" x="13.997155" y="52.6641929" width="16.7965861" height="6.92949907" rx="3.46474954"></rect>
                        </g>
                        <g id="Combined-Shape" stroke-linecap="round" transform="translate(30.795588, 72.090875) rotate(-38.000000) translate(-30.795588, -72.090875) ">
                            <use fill="#8A96A8" fill-rule="evenodd" xlink:href="#path-1"></use>
                            <path stroke="#FFFFFF" stroke-width="1" d="M32.5722777,73.3138532 L32.5722777,78.0002742 C32.5722777,78.8287013 31.9007048,79.5002742 31.0722777,79.5002742 L30.8444807,79.5002742 C30.0160536,79.5002742 29.3444807,78.8287013 29.3444807,78.0002742 L29.3444807,73.5600496 L25.6406725,73.8425531 L31.4315308,64.1322317 L35.8002079,73.0676467 L32.5722777,73.3138532 Z"></path>
                        </g>
                        <g id="Group-3-Copy-7" transform="translate(55.988620, 11.087199)">
                            <rect id="Rectangle-16" stroke="#8A96A8" stroke-width="0.8" fill="#FFFFFF" x="0" y="0" width="51.7894737" height="18.0166976" rx="1"></rect>
                            <rect id="Rectangle-17" fill="#E6E9ED" x="3.88421053" y="3.86072091" width="10.3578947" height="10.2952558" rx="1"></rect>
                            <path d="M18.1263158,7.07798834 L36.2526316,7.07798834" id="Path-16-Copy-3" stroke="#E6E9ED" stroke-width="0.8" stroke-linecap="round" stroke-linejoin="round"></path>
                            <path d="M18.1263158,10.9387092 L27.5057884,10.9387092" id="Path-16-Copy-5" stroke="#E6E9ED" stroke-width="0.8" stroke-linecap="round" stroke-linejoin="round"></path>
                        </g>
                        <g id="Group-3-Copy-7" transform="translate(61.587482, 5.543599)">
                            <rect id="Rectangle-16" stroke="#8A96A8" stroke-width="0.8" fill="#FFFFFF" x="0" y="0" width="51.7894737" height="18.0166976" rx="1"></rect>
                            <rect id="Rectangle-17" fill="#E6E9ED" x="3.88421053" y="3.86072091" width="10.3578947" height="10.2952558" rx="1"></rect>
                            <path d="M18.1263158,7.07798834 L36.2526316,7.07798834" id="Path-16-Copy-3" stroke="#E6E9ED" stroke-width="0.8" stroke-linecap="round" stroke-linejoin="round"></path>
                            <path d="M18.1263158,10.9387092 L27.5057884,10.9387092" id="Path-16-Copy-5" stroke="#E6E9ED" stroke-width="0.8" stroke-linecap="round" stroke-linejoin="round"></path>
                        </g>
                        <g id="Group-3-Copy-7" transform="translate(67.186344, 0.000000)">
                            <rect id="Rectangle-16" stroke="#8A96A8" stroke-width="0.8" fill="#FFFFFF" x="0" y="0" width="51.7894737" height="18.0166976" rx="1"></rect>
                            <rect id="Rectangle-17" fill="#E6E9ED" x="3.88421053" y="3.86072091" width="10.3578947" height="10.2952558" rx="1"></rect>
                            <path d="M18.1263158,7.07798834 L36.2526316,7.07798834" id="Path-16-Copy-3" stroke="#E6E9ED" stroke-width="0.8" stroke-linecap="round" stroke-linejoin="round"></path>
                            <path d="M18.1263158,10.9387092 L27.5057884,10.9387092" id="Path-16-Copy-5" stroke="#E6E9ED" stroke-width="0.8" stroke-linecap="round" stroke-linejoin="round"></path>
                        </g>
                        <g id="Group-13" transform="translate(70.225814, 46.384631) scale(1, -1) rotate(65.000000) translate(-70.225814, -46.384631) translate(52.225814, 39.884631)" stroke="#8A96A8" stroke-linecap="round" stroke-width="0.5">
                            <path d="M0.270734915,12.4558316 C7.74887715,-2.95578727 34.68574,3.7600009 34.68574,3.7600009" id="Path-18" stroke-dasharray="2"></path>
                            <polyline id="Rectangle-12" stroke-linejoin="round" transform="translate(32.647029, 3.403082) rotate(-25.000000) translate(-32.647029, -3.403082) " points="34.6296205 1.51479084 34.6296205 5.29137354 30.6644376 5.29137354"></polyline>
                        </g>
                        <g id="Group-4" transform="translate(37.792319, 47.120594)">
                            <ellipse id="Oval-14" fill="#6E66CB" cx="11.197724" cy="10.3942486" rx="11.197724" ry="10.3942486"></ellipse>
                            <g id="Group-2" transform="translate(7.998374, 5.939571)" fill="#F8F8FF">
                                <polygon id="Path-21" points="1.1426249 0 5.14181206 0 3.99918716 4.06731467 7.99837431 4.06731467 2.85656226 10.3942486 3.71353093 5.87501008 0 5.87501008"></polygon>
                            </g>
                        </g>
                    </g>
                </g>
            </g>
            <g id="schedule" transform="translate(57.000000, 220.000000)">
                <g id="Group-23-Copy">
                    <g id="Group-9" transform="translate(0.178947, 0.000000)">
                        <g id="Group-2" transform="translate(0.000000, 3.857143)" stroke="#8A96A8" stroke-linecap="round" stroke-linejoin="round">
                            <rect id="Rectangle-8" x="0" y="0" width="93.2210526" height="66.8571429" rx="2"></rect>
                            <path d="M0,12.8571429 L67.3561484,12.8571429 M70.349755,12.8571429 L71.4723575,12.8571429 M74.8401649,12.8571429 L91.9263158,12.8571429" id="Path-6"></path>
                        </g>
                        <g id="Group" transform="translate(23.305263, 0.000000)" stroke="#8A96A8" stroke-linecap="round" stroke-linejoin="round" stroke-width="1.5">
                            <path d="M1.10977444,0 L1.10977444,9" id="Path-7"></path>
                            <path d="M23.3052632,0 L23.3052632,9" id="Path-7-Copy"></path>
                            <path d="M45.5007519,0 L45.5007519,9" id="Path-7-Copy-2"></path>
                        </g>
                        <g id="Group-16" transform="translate(6.473684, 23.142857)">
                            <g id="Group-20" transform="translate(12.947368, 0.000000)" fill="#E7E8FF">
                                <ellipse id="Oval-5-Copy" cx="2.58947368" cy="2.57142857" rx="2.58947368" ry="2.57142857"></ellipse>
                                <ellipse id="Oval-5-Copy-2" cx="15.2778947" cy="2.57142857" rx="2.58947368" ry="2.57142857"></ellipse>
                                <ellipse id="Oval-5-Copy-3" cx="27.9663158" cy="2.57142857" rx="2.58947368" ry="2.57142857"></ellipse>
                                <ellipse id="Oval-5-Copy-4" cx="40.6547368" cy="2.57142857" rx="2.58947368" ry="2.57142857"></ellipse>
                                <ellipse id="Oval-5-Copy-5" cx="53.3431579" cy="2.57142857" rx="2.58947368" ry="2.57142857"></ellipse>
                                <ellipse id="Oval-5-Copy-6" cx="66.0315789" cy="2.57142857" rx="2.58947368" ry="2.57142857"></ellipse>
                            </g>
                            <g id="Group-19" transform="translate(0.000000, 12.000000)">
                                <ellipse id="Oval-5-Copy-7" fill="#E7E8FF" cx="2.58947368" cy="2.57142857" rx="2.58947368" ry="2.57142857"></ellipse>
                                <ellipse id="Oval-5-Copy-8" fill="#6E66CB" cx="15.3210526" cy="2.57142857" rx="2.58947368" ry="2.57142857"></ellipse>
                                <ellipse id="Oval-5-Copy-9" fill="#6E66CB" cx="28.0526316" cy="2.57142857" rx="2.58947368" ry="2.57142857"></ellipse>
                                <ellipse id="Oval-5-Copy-10" fill="#6E66CB" cx="40.7842105" cy="2.57142857" rx="2.58947368" ry="2.57142857"></ellipse>
                                <ellipse id="Oval-5-Copy-11" fill="#E7E8FF" cx="53.5157895" cy="2.57142857" rx="2.58947368" ry="2.57142857"></ellipse>
                                <ellipse id="Oval-5-Copy-12" fill="#E7E8FF" cx="66.2473684" cy="2.57142857" rx="2.58947368" ry="2.57142857"></ellipse>
                                <ellipse id="Oval-5-Copy-13" fill="#E7E8FF" cx="78.9789474" cy="2.57142857" rx="2.58947368" ry="2.57142857"></ellipse>
                            </g>
                            <g id="Group-17" transform="translate(0.000000, 24.000000)">
                                <ellipse id="Oval-5-Copy-20" fill="#E7E8FF" cx="2.58947368" cy="2.57142857" rx="2.58947368" ry="2.57142857"></ellipse>
                                <ellipse id="Oval-5-Copy-19" fill="#6E66CB" cx="15.3210526" cy="2.57142857" rx="2.58947368" ry="2.57142857"></ellipse>
                                <ellipse id="Oval-5-Copy-18" fill="#E7E8FF" cx="28.0526316" cy="2.57142857" rx="2.58947368" ry="2.57142857"></ellipse>
                                <ellipse id="Oval-5-Copy-17" fill="#E7E8FF" cx="40.7842105" cy="2.57142857" rx="2.58947368" ry="2.57142857"></ellipse>
                                <ellipse id="Oval-5-Copy-16" fill="#E7E8FF" cx="53.5157895" cy="2.57142857" rx="2.58947368" ry="2.57142857"></ellipse>
                                <ellipse id="Oval-5-Copy-15" fill="#E7E8FF" cx="66.2473684" cy="2.57142857" rx="2.58947368" ry="2.57142857"></ellipse>
                                <ellipse id="Oval-5-Copy-14" fill="#E7E8FF" cx="78.9789474" cy="2.57142857" rx="2.58947368" ry="2.57142857"></ellipse>
                            </g>
                            <g id="Group-18" transform="translate(0.000000, 36.000000)">
                                <ellipse id="Oval-5-Copy-27" fill="#E7E8FF" cx="2.58947368" cy="2.57142857" rx="2.58947368" ry="2.57142857"></ellipse>
                                <ellipse id="Oval-5-Copy-26" fill="#6E66CB" cx="15.3210526" cy="2.57142857" rx="2.58947368" ry="2.57142857"></ellipse>
                                <ellipse id="Oval-5-Copy-25" fill="#E7E8FF" cx="28.0526316" cy="2.57142857" rx="2.58947368" ry="2.57142857"></ellipse>
                                <ellipse id="Oval-5-Copy-24" fill="#E7E8FF" cx="40.7842105" cy="2.57142857" rx="2.58947368" ry="2.57142857"></ellipse>
                                <ellipse id="Oval-5-Copy-23" fill="#E7E8FF" cx="53.5157895" cy="2.57142857" rx="2.58947368" ry="2.57142857"></ellipse>
                                <ellipse id="Oval-5-Copy-22" fill="#E7E8FF" cx="66.2473684" cy="2.57142857" rx="2.58947368" ry="2.57142857"></ellipse>
                                <ellipse id="Oval-5-Copy-21" fill="#E7E8FF" cx="78.9789474" cy="2.57142857" rx="2.58947368" ry="2.57142857"></ellipse>
                            </g>
                        </g>
                        <g id="Group-7" transform="translate(73.800000, 37.285714)" stroke="#8A96A8" stroke-linecap="round">
                            <ellipse id="Oval-4" fill="#FFFFFF" stroke-linejoin="round" cx="19.4210526" cy="19.2857143" rx="19.4210526" ry="19.2857143"></ellipse>
                            <ellipse id="Oval-4" stroke-width="0.8" fill="#FFFFFF" stroke-linejoin="round" cx="19.4210526" cy="19.2857143" rx="16.8315789" ry="16.7142857"></ellipse>
                            <ellipse id="Oval-7" stroke-linejoin="round" cx="19.4210526" cy="19.2857143" rx="1.29473684" ry="1.28571429"></ellipse>
                            <path d="M19.4210526,17.3927476 L19.4210526,11.5714286" id="Path-13"></path>
                            <path d="M20.7157895,19.2857143 L30.4263158,19.2857143" id="Path-14"></path>
                        </g>
                    </g>
                </g>
            </g>
            <g id="external-trigger" transform="translate(393.000000, 223.000000)">
                <g id="Group-22-Copy">
                    <g id="Group-14" transform="translate(0.178947, 0.571429)">
                        <path d="M18.1263158,16.7142857 L55.6736842,16.7142857" id="Path-10" stroke="#6E66CB" fill="#F8F8FF" stroke-linecap="round"></path>
                        <path d="M18.1263158,52.7142857 L55.6736842,52.7142857" id="Path-10-Copy-9" stroke="#6E66CB" fill="#F8F8FF" stroke-linecap="round"></path>
                        <path d="M0,24.4285714 L25.0464566,24.4285714" id="Path-10-Copy-2" stroke="#6E66CB" fill="#F8F8FF" stroke-linecap="round"></path>
                        <path d="M84.1578947,47.5714286 L98.4,47.5714286" id="Path-10-Copy-16" stroke="#6E66CB" fill="#F8F8FF" stroke-linecap="round"></path>
                        <path d="M64.7368421,18.9642857 L105.454083,18.9642857" id="Path-10-Copy" stroke="#6E66CB" fill="#F8F8FF" stroke-linecap="round"></path>
                        <path d="M76.3894737,54.9642857 L108.173544,54.9642857" id="Path-10-Copy-14" stroke="#6E66CB" fill="#F8F8FF" stroke-linecap="round"></path>
                        <path d="M25.8947368,38.5714286 L106.600074,38.5714286" id="Path-10-Copy-15" stroke="#6E66CB" fill="#F8F8FF" stroke-linecap="round"></path>
                        <path d="M33.6631579,28.2857143 L114.368495,28.2857143" id="Path-10-Copy-3" stroke="#6E66CB" fill="#F8F8FF" stroke-linecap="round"></path>
                        <g id="Group-2-Copy">
                            <path d="M2,0 L88.6315789,0 C89.7361484,-2.02906125e-16 90.6315789,0.8954305 90.6315789,2 L90.6315789,15.2742857 L0,15.2742857 L0,2 C-1.3527075e-16,0.8954305 0.8954305,2.02906125e-16 2,0 Z" id="Rectangle-8" fill="#F8F8FF"></path>
                            <rect id="Rectangle-8-Copy" fill="#FFFFFF" x="0" y="15.2742857" width="90.6315789" height="54.1542857"></rect>
                            <rect id="Rectangle-8" stroke="#8A96A8" stroke-width="0.8" stroke-linecap="round" stroke-linejoin="round" x="0" y="0" width="90.6315789" height="69.4285714" rx="2"></rect>
                            <path d="M0,14.58 L64.1392713,14.58 M66.2307692,14.58 L68.3222672,14.58 M70.4137652,14.58 L89.7765641,14.58" id="Path-6" stroke="#8A96A8" stroke-width="0.8" stroke-linecap="round" stroke-linejoin="round"></path>
                            <ellipse id="Oval-3" fill="#8A96A8" cx="6.27449393" cy="7.63714286" rx="2.09149798" ry="2.08285714"></ellipse>
                            <ellipse id="Oval-3-Copy" fill="#8A96A8" cx="13.9433198" cy="7.63714286" rx="2.09149798" ry="2.08285714"></ellipse>
                            <ellipse id="Oval-3-Copy-2" fill="#8A96A8" cx="21.6121457" cy="7.63714286" rx="2.09149798" ry="2.08285714"></ellipse>
                            <g id="Group-3" transform="translate(24.803239, 23.948367)">
                                <g id="Group" transform="translate(34.582291, 5.838824)" stroke="#8A96A8" stroke-linejoin="round">
                                    <path d="M0,0 L-3.8493409e-16,0 C1.15730363,-2.12593228e-16 2.09548359,0.938179959 2.09548359,2.09548359 L2.09548359,8.50195452 C2.09548359,10.0866265 3.38011401,11.3712569 4.96478595,11.3712569" id="Path-5"></path>
                                    <path d="M0,12.1378547 L-3.8493409e-16,12.1378547 C1.15730363,12.1378547 2.09548359,13.0760346 2.09548359,14.2333383 L2.09548359,20.6398092 C2.09548359,22.2244811 3.38011401,23.5091116 4.96478595,23.5091116" id="Path-5" transform="translate(2.482393, 17.823483) scale(1, -1) translate(-2.482393, -17.823483) "></path>
                                </g>
                                <g id="Group" transform="translate(2.801319, 17.838824) scale(-1, 1) translate(-2.801319, -17.838824) translate(0.301319, 5.838824)" stroke="#8A96A8" stroke-linejoin="round">
                                    <path d="M0,0 L-3.8493409e-16,0 C1.15730363,-2.12593228e-16 2.09548359,0.938179959 2.09548359,2.09548359 L2.09548359,8.50195452 C2.09548359,10.0866265 3.38011401,11.3712569 4.96478595,11.3712569" id="Path-5"></path>
                                    <path d="M0,12.1378547 L-3.8493409e-16,12.1378547 C1.15730363,12.1378547 2.09548359,13.0760346 2.09548359,14.2333383 L2.09548359,20.6398092 C2.09548359,22.2244811 3.38011401,23.5091116 4.96478595,23.5091116" id="Path-5" transform="translate(2.482393, 17.823483) scale(1, -1) translate(-2.482393, -17.823483) "></path>
                                </g>
                                <text id="@" font-family="Lato-Semibold, Lato" font-size="23" font-weight="500" fill="#6E66CB">
                                    <tspan x="10.6021962" y="23.5885714">@</tspan>
                                </text>
                            </g>
                        </g>
                    </g>
                </g>
            </g>
        </g>
    </g>
</svg>