<?xml version="1.0" encoding="utf-8"?>
<!-- Generator: Adobe Illustrator 19.2.1, SVG Export Plug-In . SVG Version: 6.00 Build 0)  -->
<svg version="1.1" id="Layer_1" xmlns="http://www.w3.org/2000/svg" xmlns:xlink="http://www.w3.org/1999/xlink" x="0px" y="0px"
	 viewBox="0 0 640 473.5" style="enable-background:new 0 0 640 473.5;" xml:space="preserve">
<style type="text/css">
	.st0{fill:#FA7255;}
	.st1{fill:#FA846C;}
	.st2{fill:#FA9E78;}
	.st3{fill:#594C4B;}
	.st4{fill:#46E0F9;}
	.st5{fill:none;stroke:#46E0F9;stroke-miterlimit:10;}
	.st6{fill:none;stroke:#46E0F9;stroke-miterlimit:10;stroke-dasharray:3,3;}
	.st7{fill:#FAFAFA;}
	.st8{fill:#2B2A2A;}
	.st9{fill:#333333;}
	.st10{fill:#FFFFFF;}
	.st11{fill:#4D4D4D;}
	.st12{fill:#2D2D2D;}
	.st13{fill:#F25432;}
	.st14{fill:#736A6A;}
	.st15{fill:#E8DFDF;}
	.st16{fill:#FCF0F0;}
	.st17{fill:none;stroke:url(#SVGID_1_);stroke-width:40;stroke-miterlimit:10;}
</style>
<g>
	<path class="st11" d="M166.4,122.5l-28-31.3c-4.3-4.8-11.9-5-16.3-0.3l-22.2,23.2c-4.3,4.4-11.3,4.6-15.7,0.3l0,0
		c-4.4-4.3-4.6-11.3-0.3-15.7l38.9-40.5c4.5-4.7,12-4.6,16.3,0.3l28,31.3c4.3,4.8,11.9,5,16.3,0.3l12.5-13.1
		c4.3-4.4,11.3-4.6,15.7-0.3l0,0c4.4,4.3,4.6,11.3,0.3,15.7l-29.2,30.4C178.3,127.5,170.7,127.4,166.4,122.5z"/>
	<path class="st11" d="M72.1,181.7L72.1,181.7c-4.4-4.3-4.6-11.3-0.3-15.8l40.4-42.1c4.3-4.4,11.3-4.6,15.7-0.3l0,0
		c4.4,4.3,4.6,11.3,0.3,15.7l-40.4,42.1C83.6,185.8,76.6,185.9,72.1,181.7z"/>
	<path class="st11" d="M142.2,209.2L142.2,209.2c-4.5-4.2-4.7-11.3-0.5-15.7l13.2-14c4-4.3,4-11,0-15.3l-8.6-9.2
		c-4.2-4.5-4-11.5,0.5-15.7l0,0c4.5-4.2,11.5-4,15.7,0.5l22.9,24.4c4,4.3,4,11,0,15.3L158,208.8
		C153.8,213.3,146.7,213.5,142.2,209.2z"/>
</g>
<g>
	<path class="st11" d="M516.7,205.1c-0.7,0-1.4-0.3-1.8-0.9l-34.4-45.4c-0.3-0.4-0.5-0.9-0.5-1.4l1.5-56.9c0-0.9,0.6-1.7,1.4-2.1
		l10.9-4.5c0.7-0.3,1.5-0.2,2.1,0.2c0.6,0.4,1,1.1,1,1.9v60.3l26.1,34.7l24.1,0.1c0,0,0,0,0,0c0.9,0,1.7,0.3,2.1,1.1
		c0.4,0.8,0.3,1.6-0.3,2.3l-6.5,8.2c-0.4,0.5-1,0.8-1.6,0.8l-24.1,1.6C516.8,205.1,516.7,205.1,516.7,205.1z M484.6,156.7l33.2,43.8
		l21.8-1.5l2.9-3.8l-20.5-0.1h0c-0.7,0-1.4-0.2-1.8-0.8l-27-35.9c-0.3-0.4-0.2-0.8-0.2-1.3V99.4l-6.7,2.7L484.6,156.7z"/>
	<path class="st11" d="M547,193.7c-1.3,0-2-1-2-2.3v-5.7l-11.8-6c-0.7-0.4-1.2-1.1-1.2-1.9l-1.7-41.1l-4.5-4.2
		c-0.3-0.3-0.5-0.7-0.6-1.1l-6.9-25c-0.1-0.5-0.1-1.1,0.2-1.6l2.1-4.2l-0.8-7l-23.1,5.7c-1.2,0.3-2.5-0.4-2.8-1.7
		c-0.3-1.2,0.4-2.5,1.7-2.8l25.6-6.3c0.6-0.2,1.3,0,1.9,0.3c0.5,0.4,0.9,1,1,1.6l1.2,10.2c0,0.4,0,0.9-0.2,1.3l-2,4l6.5,23.5
		l4.7,4.4c0.4,0.4,0.7,1,0.7,1.6l1.7,40.7l11.5,6c0.8,0.4,0.9,1.2,0.9,2v7.1C549,192.7,548.3,193.7,547,193.7z"/>
	<path class="st11" d="M523.4,100.8c-0.8,0-1.7-0.5-2.1-1.3c-0.6-1.1-0.1-2.5,1-3.1l50-24.8c1.1-0.6,2.5-0.1,3.1,1
		c0.6,1.1,0.1,2.5-1,3.1l-50,24.8C524.1,100.8,523.8,100.8,523.4,100.8z"/>
	<path class="st11" d="M533,137.7c-0.8,0-1.6-0.4-2-1.2c-0.6-1.1-0.2-2.5,0.9-3.1l62.7-33.7c1.1-0.6,2.5-0.2,3.1,0.9
		c0.6,1.1,0.2,2.5-0.9,3.1l-62.7,33.7C533.7,137.6,533.4,137.7,533,137.7z"/>
	<path class="st11" d="M540.7,163c-0.8,0-1.5-0.5-1.8-1.2l-1.4-3.6l-7.7,2.6c-1,0.3-2.1-0.2-2.4-1.2s0.2-2.1,1.2-2.4l11.2-3.8l2.7,7
		c0.4,1-0.1,2.1-1.1,2.5C541.2,163,541,163,540.7,163z"/>
	<path class="st11" d="M541.1,172.7c-0.7,0-1.4-0.4-1.7-1l-1.7-3.3l-7.9,2.7c-1,0.3-2.1-0.2-2.4-1.2c-0.3-1,0.2-2.1,1.2-2.4l11-3.8
		l3.2,6.2c0.5,0.9,0.1,2.1-0.8,2.6C541.7,172.6,541.4,172.7,541.1,172.7z"/>
	<path class="st11" d="M540,152.3c-0.8,0-1.5-0.5-1.8-1.2l-1.4-3.6l-7.7,2.6c-1,0.3-2.1-0.2-2.4-1.2s0.2-2.1,1.2-2.4l11.2-3.8l2.7,7
		c0.4,1-0.1,2.1-1.1,2.5C540.4,152.3,540.2,152.3,540,152.3z"/>
	<path class="st11" d="M488.6,184.1H455c-1.3,0-2.3-1.7-2.3-3s1-3,2.3-3h33.6c1.3,0,2.3,1.7,2.3,3S489.9,184.1,488.6,184.1z"/>
	<path class="st11" d="M491.7,194.1H439c-1.3,0-2.3-1.2-2.3-2.5s1-2.5,2.3-2.5h52.7c1.3,0,2.3,1.2,2.3,2.5S493,194.1,491.7,194.1z"
		/>
	<path class="st11" d="M491.7,202.1H455c-1.3,0-2.3-0.7-2.3-2s1-2,2.3-2h36.7c1.3,0,2.3,0.7,2.3,2S493,202.1,491.7,202.1z"/>
</g>
<path class="st11" d="M476.8,322l18.2-3.9c0.9-0.2,1-1.5,0.1-1.8c0,0-14.4-4.7-14.5-4.9L465,283.9c-0.6-1-2.1-0.2-1.6,0.8l11.3,24.4
	c0.3,0.7-0.4,1.5-1.1,1.3c0,0-1.2-0.4-1.3-0.6L446.4,272c-0.7-1-2.1-0.1-1.6,1l20.7,36.7c0.2,0.3,0.2,0.7-0.1,1l-13.9,21.8
	c-0.1,0.2-0.4,0.4-0.6,0.4l-52.9,10.1c-0.1,0-0.1,0-0.2,0l-20.6,0.1c-0.4,0-0.7,0.2-0.9,0.6l-8.8,22.9c-0.1,0.2-0.2,0.3-0.3,0.4
	L347,383.6c-0.1,0-0.1,0.1-0.2,0.1l-12.6,5.9c-0.1,0-0.1,0.1-0.2,0.1l-12.9,9.3c-0.5,0.3-0.5,1-0.1,1.4l2,2c0.3,0.3,0.9,0.4,1.2,0.1
	l3.6-3c0.1-0.1,0.2-0.1,0.3-0.2l17.4-6.8c0,0,0.1,0,0.1,0l19.3-4.4c0.1,0,0.2-0.1,0.3-0.1l17.6-12.3c0.2-0.1,0.3-0.2,0.5-0.2
	l28.1-0.3c0.1,0,0.1,0,0.2,0l40.7-9c0.1,0,0.1,0,0.2,0l8.4-0.2c0.1,0,0.2,0,0.2,0l25,5.8c0.4,0.1,0.7,0.5,0.7,0.9l-0.5,10.1
	c0,0.5,0.3,0.9,0.8,1l2.3,0.4c0.5,0.1,0.9-0.2,1-0.7l3.4-13.8c0.1-0.4-0.1-0.8-0.5-1l-26.8-14c-0.4-0.2-0.6-0.7-0.5-1.1l9.8-30.9
	C476.3,322.3,476.5,322.1,476.8,322z"/>
<g>
	<polygon class="st12" points="364.8,108.5 382.1,114.1 376.6,119.9 	"/>
	<polygon class="st11" points="352.4,120.8 386.7,86.1 408.8,86.1 363.8,132.9 	"/>
	<polygon class="st11" points="334.3,79.1 346.1,92.4 299,137.9 299,113.8 	"/>
	<polygon class="st11" points="334.5,79.1 322,91.5 363.8,133.2 376.6,119.9 	"/>
	<polygon class="st12" points="346.3,92.4 340.4,109.8 334.5,103.9 	"/>
	<polygon class="st11" points="326.1,126.4 243,209.1 274.8,198 337.1,136.3 	"/>
	<polygon class="st11" points="326.3,126.4 315.6,137.3 354.4,168.5 363.5,159.4 	"/>
	<polygon class="st11" points="352,149.3 363.5,159.4 324.5,198.4 303.5,202.2 	"/>
	<polygon class="st12" points="337.1,136.3 332.6,151 326.8,146.5 	"/>
	<polygon class="st12" points="354.4,168.5 342.9,159.3 337.7,164.9 	"/>
	<circle class="st11" cx="367.8" cy="70.8" r="16.1"/>
</g>
<g>
	<path class="st11" d="M219.6,422.3c-7.4,0-15.1-2.3-20.9-5.6c-1.5-0.9-2.1-2.9-1.2-4.4c0.9-1.5,2.9-2.1,4.4-1.2
		c7.7,4.5,20.1,6.8,27.8,2.4l38.7-22.3c7.7-4.4,12.6-12.7,12.6-21.6v-44.8c0-8.9-4.9-17.1-12.6-21.6l-38.6-22.3
		c-7.7-4.5-17.3-4.5-25,0l-38.5,22.3c-7.6,4.4-12.3,12.7-12.3,21.6v44.8c0,8.9,4.7,17.2,12.3,21.6c1.5,0.9,2.1,2.9,1.2,4.4
		c-0.9,1.5-3.1,2.1-4.7,1.2c-9.6-5.6-15.8-16-15.8-27.2v-44.8c0-11.2,6.2-21.6,15.8-27.2l38.6-22.3c9.7-5.6,21.8-5.6,31.5,0
		l38.5,22.3c9.7,5.6,15.6,16,15.6,27.2v44.8c0,11.2-5.9,21.6-15.6,27.2L232.9,419C229.1,421.3,224.4,422.3,219.6,422.3z"/>
	<path class="st11" d="M262.2,333.4c-1.2-1.3-3.3-1.3-4.6-0.1L236,354.1l-26.6-26.6l-29,29c-1.3,1.3-1.3,3.3,0,4.6
		c1.3,1.3,3.3,1.3,4.6,0l15.3-15.3l26.3,26.3l35.5-34.1C263.4,336.8,263.4,334.7,262.2,333.4z M226.7,363l-21.8-21.8l4.5-4.5
		l21.9,21.9L226.7,363z M203.4,356.4l26.3,26.1L198.4,417c-1.2,1.3-3.2,1.4-4.6,0.2c-1.3-1.2-1.4-3.2-0.2-4.6l27.2-29.9l-17.3-17.2
		L148,421c-0.6,0.6-1.5,0.9-2.3,0.9s-1.7-0.3-2.3-0.9c-1.3-1.3-1.3-3.3,0-4.6L203.4,356.4z M236.4,332.1c8.7,0,15.7-7.1,15.7-15.7
		c0-8.7-7.1-15.7-15.7-15.7c-8.7,0-15.7,7.1-15.7,15.7C220.7,325,227.8,332.1,236.4,332.1z M236.4,307c5.1,0,9.3,4.2,9.3,9.3
		c0,5.1-4.2,9.3-9.3,9.3c-5.1,0-9.3-4.2-9.3-9.3C227.2,311.2,231.3,307,236.4,307z"/>
</g>
</svg>
